<svg width="16" height="16" xmlns="http://www.w3.org/2000/svg">
  <icon regex=".*"/>
  <g paint-order="markers stroke fill">
    <path fill="none" d="M.012.021h15.987v15.976H.012z" />
    <path
      d="M10.219 13.984q-1.131 0-1.833-.559-.687-.558-.687-1.69 0-1.245.888-1.86.902-.616 2.591-.66l1.647-.042v-.315q0-1.031-.516-1.403-.515-.387-1.389-.387-.615 0-1.174.158-.558.157-1.06.444l-.443-.974q.544-.272 1.203-.473.673-.2 1.546-.2 1.446 0 2.22.659.787.644.787 2.018v5.14h-1.031l-.143-1.059h-.058q-.472.601-1.088.902-.615.3-1.46.3zm.215-1.045q.644 0 1.188-.23.544-.243.873-.715.33-.487.33-1.217v-.688l-1.375.043q-1.374.043-1.961.444-.573.401-.573 1.117 0 .659.415.96.415.286 1.103.286z"
      style="-inkscape-font-specification:Monospace" aria-label="a" font-size="14.318" font-family="Monospace"
      fill="#fd5" />
  </g>
</svg>