<svg width="16" height="16" xmlns="http://www.w3.org/2000/svg">
   <g transform="scale(0.5)">
      <icon regex=".*3D$"/>
   </g>
   <g paint-order="markers stroke fill">
      <path fill="none" d="M.012.021h15.987v15.976H.012z" />
      <path
         d="M11.76 13.968q-.61 0-1.033-.237-.414-.248-.652-.569h-.062l-.082.703h-.745V6.007h.9V7.91q0 .29-.01.568 0 .28-.032.57h.042q.217-.332.63-.58.414-.248 1.045-.248 1.003 0 1.613.724.62.723.62 2.14 0 1.427-.62 2.16-.62.724-1.613.724zm-.175-.754q.755 0 1.106-.548.352-.548.352-1.582 0-1.013-.352-1.561-.351-.548-1.116-.548-.714 0-1.107.548-.382.537-.382 1.54 0 1.044.362 1.603.372.548 1.137.548z"
         style="-inkscape-font-specification:Monospace" aria-label="b" font-size="10.339" font-family="Monospace"
         fill="#0f0" />
   </g>
</svg>