<svg width="16" height="16" xmlns="http://www.w3.org/2000/svg">
   <icon type="Control"/>
   <g paint-order="markers stroke fill">
      <path fill="none" d="M.012.021h15.987v15.976H.012z" />
      <path
         d="M11.532 13.954q-1.684 0-2.655-.914-.956-.928-.956-2.997 0-1.47.47-2.355.486-.885 1.328-1.27.857-.4 1.942-.4.67 0 1.213.142.556.129 1.042.386l-.386 1.042q-.456-.243-.885-.343-.428-.114-.927-.114-1.314 0-1.899.728-.585.714-.585 2.155 0 1.527.614 2.184.614.657 1.827.657.628 0 1.184-.129.557-.143.971-.328v1.127q-.428.2-1.056.314-.628.115-1.242.115z"
         style="-inkscape-font-specification:Monospace" aria-label="c" font-size="14.273" font-family="Monospace"
         fill="red" />
   </g>
</svg>