<svg width="16" height="16" xmlns="http://www.w3.org/2000/svg">
   <icon regex="^Audio.*" outdir="icons/audios"/>
   <g paint-order="markers stroke fill">
      <path fill="none" d="M.012.021h15.987v15.976H.012z" />
      <path
         d="M11.433 14.01q-1.027 0-1.65-.715-.621-.727-.621-2.2 0-1.39.59-2.115.592-.737 1.785-.737.58 0 .954.228.373.229.57.581h.063q-.021-.145-.042-.383-.02-.239-.02-.436v-2.21h.923v7.883h-.768l-.104-.746h-.041q-.228.373-.622.612-.384.238-1.017.238zm.176-.757q.737 0 1.09-.508.362-.519.362-1.4v-.208q0-.612-.134-1.089-.135-.487-.446-.767-.312-.28-.84-.28-.727 0-1.131.539-.394.54-.394 1.649 0 2.064 1.493 2.064z"
         style="-inkscape-font-specification:Monospace" aria-label="d" font-size="10.372" font-family="Monospace"
         fill="#f0f" />
   </g>
</svg>